<svg width="24" height="24" viewBox="0 0 24 24" fill="none" xmlns="http://www.w3.org/2000/svg">
<path d="M12 13.3333H5.33333C4.97971 13.3333 4.64057 13.1929 4.39052 12.9428C4.14048 12.6928 4 12.3536 4 12V5.33333C4 4.97971 4.14048 4.64057 4.39052 4.39052C4.64057 4.14048 4.97971 4 5.33333 4H12C12.3536 4 12.6928 4.14048 12.9428 4.39052C13.1929 4.64057 13.3333 4.97971 13.3333 5.33333V12C13.3333 12.3536 13.1929 12.6928 12.9428 12.9428C12.6928 13.1929 12.3536 13.3333 12 13.3333ZM5.33333 5.33333V12H12V5.33333H5.33333ZM18.6667 9.33333V12H16V9.33333H18.6667ZM18.6667 8H16C15.6464 8 15.3072 8.14048 15.0572 8.39052C14.8071 8.64057 14.6667 8.97971 14.6667 9.33333V12C14.6667 12.3536 14.8071 12.6928 15.0572 12.9428C15.3072 13.1929 15.6464 13.3333 16 13.3333H18.6667C19.0203 13.3333 19.3594 13.1929 19.6095 12.9428C19.8595 12.6928 20 12.3536 20 12V9.33333C20 8.97971 19.8595 8.64057 19.6095 8.39052C19.3594 8.14048 19.0203 8 18.6667 8ZM18.6667 16V18.6667H16V16H18.6667ZM18.6667 14.6667H16C15.6464 14.6667 15.3072 14.8071 15.0572 15.0572C14.8071 15.3072 14.6667 15.6464 14.6667 16V18.6667C14.6667 19.0203 14.8071 19.3594 15.0572 19.6095C15.3072 19.8595 15.6464 20 16 20H18.6667C19.0203 20 19.3594 19.8595 19.6095 19.6095C19.8595 19.3594 20 19.0203 20 18.6667V16C20 15.6464 19.8595 15.3072 19.6095 15.0572C19.3594 14.8071 19.0203 14.6667 18.6667 14.6667ZM12 16V18.6667H9.33333V16H12ZM12 14.6667H9.33333C8.97971 14.6667 8.64057 14.8071 8.39052 15.0572C8.14048 15.3072 8 15.6464 8 16V18.6667C8 19.0203 8.14048 19.3594 8.39052 19.6095C8.64057 19.8595 8.97971 20 9.33333 20H12C12.3536 20 12.6928 19.8595 12.9428 19.6095C13.1929 19.3594 13.3333 19.0203 13.3333 18.6667V16C13.3333 15.6464 13.1929 15.3072 12.9428 15.0572C12.6928 14.8071 12.3536 14.6667 12 14.6667Z" fill="#11998E"/>
</svg>
