<svg width="24" height="24" viewBox="0 0 24 24" fill="none" xmlns="http://www.w3.org/2000/svg">
<path d="M14 18.6667H18.6667V19.6H14V18.6667Z" fill="#11998E"/>
<path d="M10.7229 10.5678C12.8622 10.5678 14.5963 8.87373 14.5963 6.78392C14.5963 4.69412 12.8622 3 10.7229 3C8.58373 3 6.84955 4.69412 6.84955 6.78392C6.84955 8.87373 8.58373 10.5678 10.7229 10.5678Z" fill="#11998E"/>
<path d="M9.60766 18.657V20.4143C9.60766 20.5696 9.67083 20.7186 9.78328 20.8284C9.89572 20.9383 10.0482 21 10.2073 21H20.4004C20.5594 21 20.7119 20.9383 20.8244 20.8284C20.9368 20.7186 21 20.5696 21 20.4143V14.5568C21 14.4014 20.9368 14.2524 20.8244 14.1426C20.7119 14.0328 20.5594 13.971 20.4004 13.971H16.2032V13.11C16.2032 12.9546 16.1401 12.8057 16.0276 12.6958C15.9152 12.586 15.7627 12.5242 15.6036 12.5242C15.4446 12.5242 15.2921 12.586 15.1796 12.6958C15.0672 12.8057 15.004 12.9546 15.004 13.11V13.971H13.8048V11.8741C12.7859 11.7115 11.7553 11.6292 10.7229 11.6281C8.44612 11.6186 6.19484 12.0964 4.12735 13.028C3.78707 13.1849 3.49999 13.4338 3.30019 13.7453C3.10038 14.0567 2.99624 14.4177 3.0001 14.7852V18.657H9.60766ZM19.8008 19.8285H10.8069V15.1425H15.004V15.3885C15.004 15.5439 15.0672 15.6929 15.1796 15.8027C15.2921 15.9126 15.4446 15.9743 15.6036 15.9743C15.7627 15.9743 15.9152 15.9126 16.0276 15.8027C16.1401 15.6929 16.2032 15.5439 16.2032 15.3885V15.1425H19.8008V19.8285Z" fill="#11998E"/>
</svg>
