<svg width="24" height="24" viewBox="0 0 24 24" fill="none" xmlns="http://www.w3.org/2000/svg">
<path d="M12.0035 9.54929C11.3684 9.54929 10.7737 9.78266 10.3234 10.2092C9.87521 10.6356 9.6267 11.1989 9.6267 11.8005C9.6267 12.402 9.87521 12.9653 10.3234 13.3918C10.7737 13.8162 11.3684 14.0516 12.0035 14.0516C12.6385 14.0516 13.2333 13.8162 13.6835 13.3918C14.1317 12.9653 14.3802 12.402 14.3802 11.8005C14.3802 11.1989 14.1317 10.6356 13.6835 10.2092C13.4636 9.99924 13.2018 9.83281 12.9134 9.71953C12.625 9.60625 12.3157 9.54839 12.0035 9.54929ZM20.7607 14.287L19.3716 13.1624C19.4375 12.7802 19.4714 12.3899 19.4714 12.0016C19.4714 11.6134 19.4375 11.2211 19.3716 10.8408L20.7607 9.71627C20.8656 9.63118 20.9408 9.51786 20.976 9.39137C21.0113 9.26487 21.0051 9.1312 20.9582 9.00813L20.9391 8.95582C20.5568 7.94328 19.984 7.00473 19.2484 6.18563L19.2102 6.14338C19.1209 6.0439 19.0018 5.97239 18.8687 5.93827C18.7356 5.90416 18.5948 5.90903 18.4647 5.95226L16.74 6.53366C16.1028 6.03877 15.3934 5.64849 14.6245 5.3769L14.291 3.66891C14.2658 3.54024 14.1999 3.42187 14.1021 3.32952C14.0042 3.23717 13.879 3.17522 13.743 3.15189L13.6857 3.14183C12.5812 2.95272 11.4172 2.95272 10.3127 3.14183L10.2554 3.15189C10.1195 3.17522 9.99423 3.23717 9.89635 3.32952C9.79847 3.42187 9.73257 3.54024 9.70741 3.66891L9.37182 5.38494C8.61021 5.6587 7.90072 6.04803 7.27118 6.53768L5.53375 5.95226C5.40368 5.90869 5.2627 5.90364 5.12954 5.93778C4.99637 5.97191 4.87733 6.04362 4.78822 6.14338L4.74999 6.18563C4.01571 7.0056 3.44303 7.94392 3.05928 8.95582L3.04017 9.00813C2.94459 9.2596 3.02318 9.54125 3.2377 9.71627L4.64379 10.8529C4.57794 11.2311 4.54608 11.6174 4.54608 11.9996C4.54608 12.3859 4.57794 12.7721 4.64379 13.1463L3.24195 14.283C3.13701 14.3681 3.06191 14.4814 3.02662 14.6079C2.99134 14.7344 2.99754 14.868 3.04442 14.9911L3.06353 15.0434C3.44798 16.0553 4.01508 16.9908 4.75424 17.8136L4.79247 17.8559C4.88179 17.9553 5.00084 18.0268 5.13393 18.061C5.26701 18.0951 5.40789 18.0902 5.53799 18.047L7.27543 17.4616C7.90838 17.9544 8.61355 18.3447 9.37606 18.6143L9.71166 20.3303C9.73682 20.459 9.80271 20.5774 9.90059 20.6697C9.99848 20.7621 10.1237 20.824 10.2596 20.8474L10.317 20.8574C11.4323 21.0475 12.5746 21.0475 13.6899 20.8574L13.7473 20.8474C13.8832 20.824 14.0084 20.7621 14.1063 20.6697C14.2042 20.5774 14.2701 20.459 14.2953 20.3303L14.6287 18.6223C15.3976 18.3487 16.107 17.9605 16.7442 17.4656L18.4689 18.047C18.599 18.0905 18.74 18.0956 18.8731 18.0615C19.0063 18.0273 19.1253 17.9556 19.2144 17.8559L19.2527 17.8136C19.9918 16.9868 20.5589 16.0553 20.9434 15.0434L20.9625 14.9911C21.0538 14.7417 20.9752 14.462 20.7607 14.287ZM12.0035 15.3371C9.94105 15.3371 8.26946 13.7539 8.26946 11.8005C8.26946 9.84703 9.94105 8.26378 12.0035 8.26378C14.0659 8.26378 15.7374 9.84703 15.7374 11.8005C15.7374 13.7539 14.0659 15.3371 12.0035 15.3371Z" fill="#11998E"/>
</svg>
